<svg width="40" height="40" viewBox="0 0 40 40" fill="none" xmlns="http://www.w3.org/2000/svg">
<path d="M29.7501 26.7555L34.645 3.63432H40V0H32.3051L31.1511 5.45041L0 5.42353L3.31183 26.7553H29.7501V26.7555ZM30.3819 9.08409L27.4102 23.1211H5.8126L3.62971 9.061L30.3819 9.08409Z" fill="#FFCB14"/>
<path d="M25.626 40C28.2825 40 30.4437 37.3928 30.4437 34.1881C30.4437 30.9834 28.2825 28.3763 25.626 28.3763H7.47474C4.81825 28.3763 2.65698 30.9834 2.65698 34.1881C2.65698 37.3928 4.8182 40 7.47474 40C10.1313 40 12.2925 37.3928 12.2925 34.1881C12.2925 33.4185 12.1675 32.6835 11.9413 32.0106H21.1595C20.9332 32.6835 20.8082 33.4185 20.8082 34.1881C20.8083 37.3928 22.9695 40 25.626 40ZM9.2798 34.1881C9.2798 35.3889 8.47007 36.3657 7.47474 36.3657C6.47941 36.3657 5.66963 35.3889 5.66963 34.1881C5.66963 32.9874 6.47937 32.0106 7.47474 32.0106C8.47007 32.0106 9.2798 32.9874 9.2798 34.1881ZM27.4311 34.1881C27.4311 35.3889 26.6214 36.3657 25.626 36.3657C24.6307 36.3657 23.821 35.3889 23.821 34.1881C23.821 32.9874 24.6307 32.0106 25.626 32.0106C26.6214 32.0106 27.4311 32.9874 27.4311 34.1881Z" fill="#FFCB14"/>
</svg>
