<svg width="32" height="33" viewBox="0 0 32 33" fill="none" xmlns="http://www.w3.org/2000/svg">
<path d="M4.1088 0.751282H27.8931C30.1527 0.751282 32 2.59918 32 4.8588V28.6431C32 30.9021 30.1527 32.7487 27.8931 32.7487H4.1088C1.84917 32.7487 0 30.902 0 28.6431V4.8588C0 2.59918 1.84917 0.751282 4.1088 0.751282ZM23.3116 4.30509C22.5182 4.30509 21.871 4.9548 21.871 5.74776V9.19459C21.871 9.98787 22.5182 10.6361 23.3116 10.6361H26.9279C27.72 10.6361 28.3685 9.98787 28.3685 9.19459V5.74776C28.3685 4.9548 27.72 4.30509 26.9279 4.30509H23.3116ZM28.3823 14.2826H25.5667C25.8337 15.1546 25.9785 16.0742 25.9785 17.0302C25.9785 22.351 21.5234 26.6665 16.0301 26.6665C10.5381 26.6665 6.08299 22.351 6.08299 17.0302C6.08299 16.0742 6.22912 15.1546 6.49483 14.2826H3.55733V27.8007C3.55733 28.5007 4.12896 29.0702 4.82837 29.0702H27.1118C27.8118 29.0702 28.3823 28.5007 28.3823 27.8007V14.2826ZM16.0302 10.4543C12.4825 10.4543 9.60459 13.2413 9.60459 16.6824C9.60459 20.1199 12.4825 22.909 16.0302 22.909C19.5798 22.909 22.4578 20.1199 22.4578 16.6824C22.4578 13.2412 19.5798 10.4543 16.0302 10.4543Z" fill="#E41010"/>
</svg>
