<svg width="32" height="33" viewBox="0 0 32 33" fill="none" xmlns="http://www.w3.org/2000/svg">
<g clip-path="url(#clip0_2279_2123)">
<path d="M31.2746 6.67392C30.7719 6.89688 30.2551 7.08507 29.727 7.23784C30.3522 6.53074 30.8289 5.69874 31.1199 4.78829C31.1851 4.58421 31.1175 4.36083 30.9498 4.22736C30.7822 4.09379 30.5495 4.07779 30.365 4.1871C29.2434 4.85229 28.0334 5.33033 26.7647 5.60987C25.4866 4.36104 23.7508 3.65033 21.9563 3.65033C18.1684 3.65033 15.0867 6.73193 15.0867 10.5197C15.0867 10.818 15.1056 11.1147 15.143 11.4072C10.4426 10.9945 6.07276 8.68424 3.07198 5.00331C2.96504 4.87211 2.80029 4.8014 2.63162 4.81492C2.46285 4.82814 2.31121 4.92331 2.22595 5.06958C1.61733 6.11392 1.29557 7.30834 1.29557 8.52362C1.29557 10.1788 1.88654 11.7493 2.93046 12.9765C2.61304 12.8665 2.30502 12.7291 2.01103 12.5659C1.8532 12.4781 1.66058 12.4794 1.50378 12.5693C1.34687 12.6593 1.2485 12.8246 1.24437 13.0054C1.24365 13.0358 1.24365 13.0663 1.24365 13.0971C1.24365 15.5679 2.5734 17.7923 4.60644 19.0047C4.43178 18.9872 4.25722 18.9619 4.0838 18.9288C3.90502 18.8946 3.72117 18.9573 3.6006 19.0936C3.47983 19.2299 3.43988 19.4198 3.49552 19.5932C4.24804 21.9427 6.18548 23.6708 8.52767 24.1976C6.58507 25.4144 4.36355 26.0517 2.03147 26.0517C1.54486 26.0517 1.05547 26.0231 0.5765 25.9664C0.338565 25.9381 0.111055 26.0786 0.0300229 26.3049C-0.0510093 26.5313 0.0348745 26.7836 0.2373 26.9134C3.23322 28.8343 6.69738 29.8497 10.2551 29.8497C17.249 29.8497 21.6242 26.5516 24.063 23.7848C27.104 20.3349 28.8481 15.7685 28.8481 11.2566C28.8481 11.0681 28.8452 10.8778 28.8394 10.6881C30.0392 9.78411 31.0722 8.69012 31.9128 7.43273C32.0404 7.24176 32.0266 6.98937 31.8787 6.81358C31.731 6.63768 31.4848 6.58081 31.2746 6.67392Z" fill="#E41010"/>
</g>
<defs>
<clipPath id="clip0_2279_2123">
<rect width="32" height="32" fill="white" transform="translate(0 0.75)"/>
</clipPath>
</defs>
</svg>
