<svg width="36" height="37" viewBox="0 0 36 37" fill="none" xmlns="http://www.w3.org/2000/svg">
<path d="M18.0871 18.5C15.6958 18.5 13.6487 17.6351 11.9458 15.9052C10.2429 14.1754 9.39145 12.0959 9.39145 9.66671C9.39145 7.23754 10.2429 5.15803 11.9458 3.42817C13.6487 1.6983 15.6958 0.833374 18.0871 0.833374C20.4784 0.833374 22.5255 1.6983 24.2284 3.42817C25.9313 5.15803 26.7828 7.23754 26.7828 9.66671C26.7828 12.0959 25.9313 14.1754 24.2284 15.9052C22.5255 17.6351 20.4784 18.5 18.0871 18.5ZM0.695801 36.1667V29.9834C0.695801 28.732 1.01283 27.5818 1.64689 26.5329C2.28095 25.4839 3.12334 24.6834 4.17406 24.1313C6.42044 22.9903 8.70305 22.1346 11.0219 21.5641C13.3407 20.9936 15.6958 20.7084 18.0871 20.7084C20.4784 20.7084 22.8335 20.9936 25.1523 21.5641C27.4712 22.1346 29.7538 22.9903 32.0001 24.1313C33.0509 24.6834 33.8933 25.4839 34.5273 26.5329C35.1614 27.5818 35.4784 28.732 35.4784 29.9834V36.1667H0.695801ZM5.04363 31.75H31.1306V29.9834C31.1306 29.5785 31.0309 29.2105 30.8317 28.8792C30.6324 28.548 30.3697 28.2903 30.0436 28.1063C28.0871 27.1125 26.1125 26.3672 24.1197 25.8704C22.127 25.3735 20.1161 25.125 18.0871 25.125C16.0581 25.125 14.0472 25.3735 12.0545 25.8704C10.0617 26.3672 8.0871 27.1125 6.13058 28.1063C5.8045 28.2903 5.54182 28.548 5.34254 28.8792C5.14326 29.2105 5.04363 29.5785 5.04363 29.9834V31.75ZM18.0871 14.0834C19.2828 14.0834 20.3063 13.6509 21.1578 12.786C22.0092 11.921 22.4349 10.8813 22.4349 9.66671C22.4349 8.45212 22.0092 7.41237 21.1578 6.54744C20.3063 5.68251 19.2828 5.25004 18.0871 5.25004C16.8915 5.25004 15.8679 5.68251 15.0165 6.54744C14.165 7.41237 13.7393 8.45212 13.7393 9.66671C13.7393 10.8813 14.165 11.921 15.0165 12.786C15.8679 13.6509 16.8915 14.0834 18.0871 14.0834Z" fill="#FFCB14"/>
</svg>
