<svg width="32" height="33" viewBox="0 0 32 33" fill="none" xmlns="http://www.w3.org/2000/svg">
<path fill-rule="evenodd" clip-rule="evenodd" d="M12.6616 10.259C12.2489 10.0232 11.7419 10.0249 11.3308 10.2634C10.9198 10.502 10.6667 10.9414 10.6667 11.4166V22.0833C10.6667 22.5586 10.9198 22.998 11.3308 23.2365C11.7419 23.475 12.2489 23.4768 12.6616 23.2409L21.9949 17.9076C22.4103 17.6702 22.6667 17.2285 22.6667 16.75C22.6667 16.2714 22.4103 15.8297 21.9949 15.5924L12.6616 10.259ZM18.6459 16.75L13.3334 19.7857V13.7142L18.6459 16.75Z" fill="#E41010"/>
<path fill-rule="evenodd" clip-rule="evenodd" d="M0 16.75C0 11.7504 0 9.25053 1.27322 7.49809C1.68441 6.93213 2.18213 6.43441 2.74809 6.02321C4.50053 4.75 7.00036 4.75 12 4.75H20C24.9996 4.75 27.4995 4.75 29.2519 6.02321C29.8179 6.43441 30.3156 6.93213 30.7268 7.49809C32 9.25053 32 11.7504 32 16.75C32 21.7496 32 24.2495 30.7268 26.0019C30.3156 26.5679 29.8179 27.0656 29.2519 27.4768C27.4995 28.75 24.9996 28.75 20 28.75H12C7.00036 28.75 4.50053 28.75 2.74809 27.4768C2.18213 27.0656 1.68441 26.5679 1.27322 26.0019C0 24.2495 0 21.7496 0 16.75ZM12 7.41667H20C22.5592 7.41667 24.2644 7.42033 25.5564 7.56031C26.7985 7.69488 27.3387 7.92931 27.6845 8.1806C28.024 8.42732 28.3227 8.72595 28.5695 9.06552C28.8207 9.4114 29.0551 9.95151 29.1897 11.1936C29.3297 12.4856 29.3333 14.1908 29.3333 16.75C29.3333 19.3092 29.3297 21.0144 29.1897 22.3064C29.0551 23.5485 28.8207 24.0887 28.5695 24.4345C28.3227 24.774 28.024 25.0727 27.6845 25.3195C27.3387 25.5707 26.7985 25.8051 25.5564 25.9397C24.2644 26.0797 22.5592 26.0833 20 26.0833H12C9.44077 26.0833 7.73556 26.0797 6.44359 25.9397C5.20151 25.8051 4.6614 25.5707 4.31552 25.3195C3.97595 25.0727 3.67732 24.774 3.4306 24.4345C3.17931 24.0887 2.94488 23.5485 2.81031 22.3064C2.67033 21.0144 2.66667 19.3092 2.66667 16.75C2.66667 14.1908 2.67033 12.4856 2.81031 11.1936C2.94488 9.95151 3.17931 9.4114 3.4306 9.06552C3.67732 8.72595 3.97595 8.42732 4.31552 8.1806C4.6614 7.92931 5.20151 7.69488 6.44359 7.56031C7.73556 7.42033 9.44077 7.41667 12 7.41667Z" fill="#E41010"/>
</svg>
