<svg width="150" height="40" viewBox="0 0 150 40" fill="none" xmlns="http://www.w3.org/2000/svg">
<path d="M42.133 20C42.133 30.4237 32.9975 39 21.5665 39C10.1356 39 1 30.4237 1 20C1 9.57627 10.1356 1 21.5665 1C32.9975 1 42.133 9.57627 42.133 20Z" stroke="#9B0B0B" stroke-width="2"/>
<path d="M35.4612 12.9143C35.8712 12.7178 36.3331 12.494 36.8838 12.494C37.0368 12.494 37.1879 12.5112 37.3391 12.5465C37.2397 12.1889 36.8297 11.9212 36.4305 11.6608C36.0892 11.4376 35.7662 11.2278 35.6226 10.9624L35.6076 10.9336H35.6081C35.6081 10.9336 36.936 9.89179 36.2248 8.9961C35.5134 8.10057 35.2093 8.56718 35.1077 8.9961C35.0065 9.42519 33.896 8.25634 33.7199 8.95835C33.5433 9.66042 31.7051 9.13182 32.1796 9.95969C32.1796 9.95969 32.2898 10.1633 32.5915 10.3498C30.8578 10.5493 29.8899 11.117 28.9379 12.263C28.6724 12.5826 28.2686 13.322 27.9842 13.8646C26.6294 16.4419 25.5763 16.7415 23.7545 16.7415C22.9133 16.7415 22.071 16.5698 21.2491 16.3021C20.8655 16.1364 17.9148 14.8256 17.1439 13.4032C16.3196 11.881 12.667 9.01181 8.89652 10.2707C5.12573 11.5297 5.84839 12.4793 9.99595 13.3446C13.9237 14.1642 6.18635 14.2521 8.97515 16.1258C11.7636 17.999 8.73878 17.9407 12.51 20.1365C15.9976 22.1669 14.6292 23.1784 16.3867 24.0681C16.3853 24.0698 16.3836 24.0716 16.3822 24.0737C16.4156 24.0899 16.455 24.1025 16.4898 24.1187C16.6065 24.1737 16.7346 24.2289 16.8784 24.2829C16.8784 24.2829 16.8875 24.2836 16.8894 24.2836C17.3825 24.457 17.9511 24.5832 18.5399 24.7102C19.1622 24.8457 20.4345 25.1148 20.4345 25.1148C22.0609 25.2457 24.4559 23.8128 25.3932 22.7666C26.8418 21.0805 25.7754 19.7269 24.9897 17.924L25.3522 17.8383C26.1002 19.5795 27.2884 21.0871 25.7114 22.9217C24.7911 23.9514 22.6383 25.2696 20.9073 25.3958C20.9641 25.4218 21.6681 25.759 22.2855 26.0092C22.8708 26.2463 23.2978 26.6564 23.4607 27.1382C23.5944 27.5346 23.7723 27.9212 24.0086 28.2847C24.1352 28.4798 24.1395 28.7068 24.0185 28.9036C23.898 29.1008 23.6664 29.2488 23.3854 29.305C22.8878 29.4053 22.3667 29.546 21.9644 29.8074C21.8406 29.8891 21.7773 30.0095 21.7952 30.1316C21.8135 30.2537 21.9101 30.3617 22.0546 30.4207C22.2717 30.5087 22.5385 30.4919 22.7325 30.3772C23.239 30.0768 24.1734 30.0488 24.9718 29.8193C25.2561 29.7379 25.5777 29.7646 25.8305 29.8906C25.9208 29.9355 26.0154 29.9783 26.1237 30.02C26.5379 30.1794 26.8887 30.4067 27.1594 30.6895C27.2356 30.7687 27.2991 30.8452 27.3472 30.9175C27.4649 31.095 27.7022 31.2122 27.9677 31.2245L28.308 31.2392C28.3678 31.242 28.4257 31.2252 28.4672 31.1929C28.5081 31.1603 28.5283 31.1164 28.5217 31.0722C28.5014 30.928 28.4426 30.7828 28.3579 30.6411C28.3278 30.5905 28.3344 30.533 28.3743 30.487C28.4144 30.441 28.4832 30.4137 28.557 30.4137C29.8215 30.4154 30.6783 30.646 31.1207 30.806C31.3547 30.8909 31.6329 30.8726 31.8429 30.7593L31.9266 30.7136C32.0368 30.6547 32.0999 30.5589 32.0966 30.4579C32.0938 30.3569 32.0236 30.2635 31.9102 30.2084C30.7389 29.6393 28.7504 29.5955 27.7764 29.4053C26.198 29.0924 25.4099 27.6553 25.5079 26.7196C25.5088 26.7203 25.5093 26.7203 25.5101 26.7203L25.5097 26.715L25.7017 26.707C26.9741 26.655 27.766 25.8 28.497 24.9558C29.7869 23.4665 30.4018 23.4493 30.4018 23.4493C33.7521 23.1939 35.6332 21.12 36.1492 17.1112C36.3021 15.9282 35.8328 15.2255 35.3352 14.4808C35.1055 14.1355 34.8664 13.7791 34.678 13.3618L34.6153 13.2223L34.8036 13.1798C35.0046 13.1355 35.2272 13.0278 35.4612 12.9143ZM33.5146 11.7611C33.2552 11.7611 33.0458 11.6041 33.0458 11.4115C33.0458 11.2185 33.2563 11.0622 33.5146 11.0622C33.7726 11.0622 33.9826 11.2189 33.9826 11.4115C33.9826 11.6041 33.7736 11.7611 33.5146 11.7611Z" fill="#E41010"/>
<mask id="path-3-outside-1_2001_37" maskUnits="userSpaceOnUse" x="47" y="13" width="103" height="15" fill="black">
<rect fill="white" x="47" y="13" width="103" height="15"/>
<path d="M55.688 18.112C55.688 19.04 55.368 19.8133 54.728 20.432C54.0987 21.04 53.1333 21.344 51.832 21.344H49.688V26H48.232V14.848H51.832C53.0907 14.848 54.0453 15.152 54.696 15.76C55.3573 16.368 55.688 17.152 55.688 18.112ZM51.832 20.144C52.6427 20.144 53.24 19.968 53.624 19.616C54.008 19.264 54.2 18.7627 54.2 18.112C54.2 16.736 53.4107 16.048 51.832 16.048H49.688V20.144H51.832ZM62.5536 26.112C61.519 26.112 60.575 25.872 59.7216 25.392C58.8683 24.9013 58.191 24.224 57.6896 23.36C57.199 22.4853 56.9536 21.504 56.9536 20.416C56.9536 19.328 57.199 18.352 57.6896 17.488C58.191 16.6133 58.8683 15.936 59.7216 15.456C60.575 14.9653 61.519 14.72 62.5536 14.72C63.599 14.72 64.5483 14.9653 65.4016 15.456C66.255 15.936 66.927 16.608 67.4176 17.472C67.9083 18.336 68.1536 19.3173 68.1536 20.416C68.1536 21.5147 67.9083 22.496 67.4176 23.36C66.927 24.224 66.255 24.9013 65.4016 25.392C64.5483 25.872 63.599 26.112 62.5536 26.112ZM62.5536 24.848C63.3323 24.848 64.031 24.6667 64.6496 24.304C65.279 23.9413 65.7696 23.424 66.1216 22.752C66.4843 22.08 66.6656 21.3013 66.6656 20.416C66.6656 19.52 66.4843 18.7413 66.1216 18.08C65.7696 17.408 65.2843 16.8907 64.6656 16.528C64.047 16.1653 63.343 15.984 62.5536 15.984C61.7643 15.984 61.0603 16.1653 60.4416 16.528C59.823 16.8907 59.3323 17.408 58.9696 18.08C58.6176 18.7413 58.4416 19.52 58.4416 20.416C58.4416 21.3013 58.6176 22.08 58.9696 22.752C59.3323 23.424 59.823 23.9413 60.4416 24.304C61.071 24.6667 61.775 24.848 62.5536 24.848ZM77.8837 14.848L74.2518 21.792V26H72.7958V21.792L69.1478 14.848H70.7638L73.5158 20.496L76.2678 14.848H77.8837ZM84.4755 26.112C83.4408 26.112 82.4968 25.872 81.6435 25.392C80.7902 24.9013 80.1128 24.224 79.6115 23.36C79.1208 22.4853 78.8755 21.504 78.8755 20.416C78.8755 19.328 79.1208 18.352 79.6115 17.488C80.1128 16.6133 80.7902 15.936 81.6435 15.456C82.4968 14.9653 83.4408 14.72 84.4755 14.72C85.5208 14.72 86.4702 14.9653 87.3235 15.456C88.1768 15.936 88.8488 16.608 89.3395 17.472C89.8302 18.336 90.0755 19.3173 90.0755 20.416C90.0755 21.5147 89.8302 22.496 89.3395 23.36C88.8488 24.224 88.1768 24.9013 87.3235 25.392C86.4702 25.872 85.5208 26.112 84.4755 26.112ZM84.4755 24.848C85.2542 24.848 85.9528 24.6667 86.5715 24.304C87.2008 23.9413 87.6915 23.424 88.0435 22.752C88.4062 22.08 88.5875 21.3013 88.5875 20.416C88.5875 19.52 88.4062 18.7413 88.0435 18.08C87.6915 17.408 87.2062 16.8907 86.5875 16.528C85.9688 16.1653 85.2648 15.984 84.4755 15.984C83.6862 15.984 82.9822 16.1653 82.3635 16.528C81.7448 16.8907 81.2542 17.408 80.8915 18.08C80.5395 18.7413 80.3635 19.52 80.3635 20.416C80.3635 21.3013 80.5395 22.08 80.8915 22.752C81.2542 23.424 81.7448 23.9413 82.3635 24.304C82.9928 24.6667 83.6968 24.848 84.4755 24.848ZM104.711 18.08C104.402 17.4293 103.954 16.928 103.367 16.576C102.781 16.2133 102.098 16.032 101.319 16.032C100.541 16.032 99.8366 16.2133 99.2073 16.576C98.5886 16.928 98.0979 17.44 97.7353 18.112C97.3833 18.7733 97.2073 19.5413 97.2073 20.416C97.2073 21.2907 97.3833 22.0587 97.7353 22.72C98.0979 23.3813 98.5886 23.8933 99.2073 24.256C99.8366 24.608 100.541 24.784 101.319 24.784C102.407 24.784 103.303 24.4587 104.007 23.808C104.711 23.1573 105.122 22.2773 105.239 21.168H100.791V19.984H106.791V21.104C106.706 22.0213 106.418 22.864 105.927 23.632C105.437 24.3893 104.791 24.992 103.991 25.44C103.191 25.8773 102.301 26.096 101.319 26.096C100.285 26.096 99.3406 25.856 98.4873 25.376C97.6339 24.8853 96.9566 24.208 96.4553 23.344C95.9646 22.48 95.7193 21.504 95.7193 20.416C95.7193 19.328 95.9646 18.352 96.4553 17.488C96.9566 16.6133 97.6339 15.936 98.4873 15.456C99.3406 14.9653 100.285 14.72 101.319 14.72C102.503 14.72 103.549 15.0133 104.455 15.6C105.373 16.1867 106.039 17.0133 106.455 18.08H104.711ZM115.308 23.52H110.444L109.548 26H108.012L112.044 14.912H113.724L117.74 26H116.204L115.308 23.52ZM114.892 22.336L112.876 16.704L110.86 22.336H114.892ZM130.81 14.928V26H129.354V17.744L125.674 26H124.65L120.954 17.728V26H119.498V14.928H121.066L125.162 24.08L129.258 14.928H130.81ZM134.735 16.032V19.76H138.799V20.96H134.735V24.8H139.279V26H133.279V14.832H139.279V16.032H134.735ZM145.018 26.112C144.282 26.112 143.621 25.984 143.034 25.728C142.458 25.4613 142.005 25.0987 141.674 24.64C141.343 24.1707 141.173 23.632 141.162 23.024H142.714C142.767 23.5467 142.981 23.9893 143.354 24.352C143.738 24.704 144.293 24.88 145.018 24.88C145.711 24.88 146.255 24.7093 146.65 24.368C147.055 24.016 147.258 23.568 147.258 23.024C147.258 22.5973 147.141 22.2507 146.906 21.984C146.671 21.7173 146.378 21.5147 146.026 21.376C145.674 21.2373 145.199 21.088 144.602 20.928C143.866 20.736 143.274 20.544 142.826 20.352C142.389 20.16 142.01 19.8613 141.69 19.456C141.381 19.04 141.226 18.4853 141.226 17.792C141.226 17.184 141.381 16.6453 141.69 16.176C141.999 15.7067 142.431 15.344 142.986 15.088C143.551 14.832 144.197 14.704 144.922 14.704C145.967 14.704 146.821 14.9653 147.482 15.488C148.154 16.0107 148.533 16.704 148.618 17.568H147.018C146.965 17.1413 146.741 16.768 146.346 16.448C145.951 16.1173 145.429 15.952 144.778 15.952C144.17 15.952 143.674 16.112 143.29 16.432C142.906 16.7413 142.714 17.1787 142.714 17.744C142.714 18.1493 142.826 18.48 143.05 18.736C143.285 18.992 143.567 19.1893 143.898 19.328C144.239 19.456 144.714 19.6053 145.322 19.776C146.058 19.9787 146.65 20.1813 147.098 20.384C147.546 20.576 147.93 20.88 148.25 21.296C148.57 21.7013 148.73 22.256 148.73 22.96C148.73 23.504 148.586 24.016 148.298 24.496C148.01 24.976 147.583 25.3653 147.018 25.664C146.453 25.9627 145.786 26.112 145.018 26.112Z"/>
</mask>
<path d="M55.688 18.112C55.688 19.04 55.368 19.8133 54.728 20.432C54.0987 21.04 53.1333 21.344 51.832 21.344H49.688V26H48.232V14.848H51.832C53.0907 14.848 54.0453 15.152 54.696 15.76C55.3573 16.368 55.688 17.152 55.688 18.112ZM51.832 20.144C52.6427 20.144 53.24 19.968 53.624 19.616C54.008 19.264 54.2 18.7627 54.2 18.112C54.2 16.736 53.4107 16.048 51.832 16.048H49.688V20.144H51.832ZM62.5536 26.112C61.519 26.112 60.575 25.872 59.7216 25.392C58.8683 24.9013 58.191 24.224 57.6896 23.36C57.199 22.4853 56.9536 21.504 56.9536 20.416C56.9536 19.328 57.199 18.352 57.6896 17.488C58.191 16.6133 58.8683 15.936 59.7216 15.456C60.575 14.9653 61.519 14.72 62.5536 14.72C63.599 14.72 64.5483 14.9653 65.4016 15.456C66.255 15.936 66.927 16.608 67.4176 17.472C67.9083 18.336 68.1536 19.3173 68.1536 20.416C68.1536 21.5147 67.9083 22.496 67.4176 23.36C66.927 24.224 66.255 24.9013 65.4016 25.392C64.5483 25.872 63.599 26.112 62.5536 26.112ZM62.5536 24.848C63.3323 24.848 64.031 24.6667 64.6496 24.304C65.279 23.9413 65.7696 23.424 66.1216 22.752C66.4843 22.08 66.6656 21.3013 66.6656 20.416C66.6656 19.52 66.4843 18.7413 66.1216 18.08C65.7696 17.408 65.2843 16.8907 64.6656 16.528C64.047 16.1653 63.343 15.984 62.5536 15.984C61.7643 15.984 61.0603 16.1653 60.4416 16.528C59.823 16.8907 59.3323 17.408 58.9696 18.08C58.6176 18.7413 58.4416 19.52 58.4416 20.416C58.4416 21.3013 58.6176 22.08 58.9696 22.752C59.3323 23.424 59.823 23.9413 60.4416 24.304C61.071 24.6667 61.775 24.848 62.5536 24.848ZM77.8837 14.848L74.2518 21.792V26H72.7958V21.792L69.1478 14.848H70.7638L73.5158 20.496L76.2678 14.848H77.8837ZM84.4755 26.112C83.4408 26.112 82.4968 25.872 81.6435 25.392C80.7902 24.9013 80.1128 24.224 79.6115 23.36C79.1208 22.4853 78.8755 21.504 78.8755 20.416C78.8755 19.328 79.1208 18.352 79.6115 17.488C80.1128 16.6133 80.7902 15.936 81.6435 15.456C82.4968 14.9653 83.4408 14.72 84.4755 14.72C85.5208 14.72 86.4702 14.9653 87.3235 15.456C88.1768 15.936 88.8488 16.608 89.3395 17.472C89.8302 18.336 90.0755 19.3173 90.0755 20.416C90.0755 21.5147 89.8302 22.496 89.3395 23.36C88.8488 24.224 88.1768 24.9013 87.3235 25.392C86.4702 25.872 85.5208 26.112 84.4755 26.112ZM84.4755 24.848C85.2542 24.848 85.9528 24.6667 86.5715 24.304C87.2008 23.9413 87.6915 23.424 88.0435 22.752C88.4062 22.08 88.5875 21.3013 88.5875 20.416C88.5875 19.52 88.4062 18.7413 88.0435 18.08C87.6915 17.408 87.2062 16.8907 86.5875 16.528C85.9688 16.1653 85.2648 15.984 84.4755 15.984C83.6862 15.984 82.9822 16.1653 82.3635 16.528C81.7448 16.8907 81.2542 17.408 80.8915 18.08C80.5395 18.7413 80.3635 19.52 80.3635 20.416C80.3635 21.3013 80.5395 22.08 80.8915 22.752C81.2542 23.424 81.7448 23.9413 82.3635 24.304C82.9928 24.6667 83.6968 24.848 84.4755 24.848ZM104.711 18.08C104.402 17.4293 103.954 16.928 103.367 16.576C102.781 16.2133 102.098 16.032 101.319 16.032C100.541 16.032 99.8366 16.2133 99.2073 16.576C98.5886 16.928 98.0979 17.44 97.7353 18.112C97.3833 18.7733 97.2073 19.5413 97.2073 20.416C97.2073 21.2907 97.3833 22.0587 97.7353 22.72C98.0979 23.3813 98.5886 23.8933 99.2073 24.256C99.8366 24.608 100.541 24.784 101.319 24.784C102.407 24.784 103.303 24.4587 104.007 23.808C104.711 23.1573 105.122 22.2773 105.239 21.168H100.791V19.984H106.791V21.104C106.706 22.0213 106.418 22.864 105.927 23.632C105.437 24.3893 104.791 24.992 103.991 25.44C103.191 25.8773 102.301 26.096 101.319 26.096C100.285 26.096 99.3406 25.856 98.4873 25.376C97.6339 24.8853 96.9566 24.208 96.4553 23.344C95.9646 22.48 95.7193 21.504 95.7193 20.416C95.7193 19.328 95.9646 18.352 96.4553 17.488C96.9566 16.6133 97.6339 15.936 98.4873 15.456C99.3406 14.9653 100.285 14.72 101.319 14.72C102.503 14.72 103.549 15.0133 104.455 15.6C105.373 16.1867 106.039 17.0133 106.455 18.08H104.711ZM115.308 23.52H110.444L109.548 26H108.012L112.044 14.912H113.724L117.74 26H116.204L115.308 23.52ZM114.892 22.336L112.876 16.704L110.86 22.336H114.892ZM130.81 14.928V26H129.354V17.744L125.674 26H124.65L120.954 17.728V26H119.498V14.928H121.066L125.162 24.08L129.258 14.928H130.81ZM134.735 16.032V19.76H138.799V20.96H134.735V24.8H139.279V26H133.279V14.832H139.279V16.032H134.735ZM145.018 26.112C144.282 26.112 143.621 25.984 143.034 25.728C142.458 25.4613 142.005 25.0987 141.674 24.64C141.343 24.1707 141.173 23.632 141.162 23.024H142.714C142.767 23.5467 142.981 23.9893 143.354 24.352C143.738 24.704 144.293 24.88 145.018 24.88C145.711 24.88 146.255 24.7093 146.65 24.368C147.055 24.016 147.258 23.568 147.258 23.024C147.258 22.5973 147.141 22.2507 146.906 21.984C146.671 21.7173 146.378 21.5147 146.026 21.376C145.674 21.2373 145.199 21.088 144.602 20.928C143.866 20.736 143.274 20.544 142.826 20.352C142.389 20.16 142.01 19.8613 141.69 19.456C141.381 19.04 141.226 18.4853 141.226 17.792C141.226 17.184 141.381 16.6453 141.69 16.176C141.999 15.7067 142.431 15.344 142.986 15.088C143.551 14.832 144.197 14.704 144.922 14.704C145.967 14.704 146.821 14.9653 147.482 15.488C148.154 16.0107 148.533 16.704 148.618 17.568H147.018C146.965 17.1413 146.741 16.768 146.346 16.448C145.951 16.1173 145.429 15.952 144.778 15.952C144.17 15.952 143.674 16.112 143.29 16.432C142.906 16.7413 142.714 17.1787 142.714 17.744C142.714 18.1493 142.826 18.48 143.05 18.736C143.285 18.992 143.567 19.1893 143.898 19.328C144.239 19.456 144.714 19.6053 145.322 19.776C146.058 19.9787 146.65 20.1813 147.098 20.384C147.546 20.576 147.93 20.88 148.25 21.296C148.57 21.7013 148.73 22.256 148.73 22.96C148.73 23.504 148.586 24.016 148.298 24.496C148.01 24.976 147.583 25.3653 147.018 25.664C146.453 25.9627 145.786 26.112 145.018 26.112Z" fill="#FFCB14"/>
<path d="M54.728 20.432L55.4228 21.1512L55.423 21.151L54.728 20.432ZM49.688 21.344V20.344H48.688V21.344H49.688ZM49.688 26V27H50.688V26H49.688ZM48.232 26H47.232V27H48.232V26ZM48.232 14.848V13.848H47.232V14.848H48.232ZM54.696 15.76L54.0132 16.4907L54.0192 16.4962L54.696 15.76ZM53.624 19.616L54.2997 20.3532L54.2997 20.3532L53.624 19.616ZM49.688 16.048V15.048H48.688V16.048H49.688ZM49.688 20.144H48.688V21.144H49.688V20.144ZM54.688 18.112C54.688 18.7818 54.469 19.2916 54.033 19.713L55.423 21.151C56.267 20.3351 56.688 19.2982 56.688 18.112H54.688ZM54.0332 19.7128C53.6639 20.0695 52.9987 20.344 51.832 20.344V22.344C53.268 22.344 54.5334 22.0105 55.4228 21.1512L54.0332 19.7128ZM51.832 20.344H49.688V22.344H51.832V20.344ZM48.688 21.344V26H50.688V21.344H48.688ZM49.688 25H48.232V27H49.688V25ZM49.232 26V14.848H47.232V26H49.232ZM48.232 15.848H51.832V13.848H48.232V15.848ZM51.832 15.848C52.9421 15.848 53.6124 16.1161 54.0133 16.4907L55.3787 15.0293C54.4783 14.1879 53.2393 13.848 51.832 13.848V15.848ZM54.0192 16.4962C54.4592 16.9007 54.688 17.4102 54.688 18.112H56.688C56.688 16.8938 56.2555 15.8353 55.3728 15.0238L54.0192 16.4962ZM51.832 21.144C52.7591 21.144 53.652 20.9469 54.2997 20.3532L52.9483 18.8788C52.828 18.9891 52.5262 19.144 51.832 19.144V21.144ZM54.2997 20.3532C54.9397 19.7665 55.2 18.9682 55.2 18.112H53.2C53.2 18.5572 53.0763 18.7615 52.9483 18.8788L54.2997 20.3532ZM55.2 18.112C55.2 17.2314 54.9411 16.3994 54.2651 15.8102C53.6153 15.2438 52.7443 15.048 51.832 15.048V17.048C52.4983 17.048 52.8113 17.1962 52.9509 17.3178C53.0643 17.4166 53.2 17.6166 53.2 18.112H55.2ZM51.832 15.048H49.688V17.048H51.832V15.048ZM48.688 16.048V20.144H50.688V16.048H48.688ZM49.688 21.144H51.832V19.144H49.688V21.144ZM59.7216 25.392L59.2231 26.2589L59.2314 26.2636L59.7216 25.392ZM57.6896 23.36L56.8175 23.8493L56.821 23.8556L56.8247 23.8619L57.6896 23.36ZM57.6896 17.488L56.822 16.9907L56.8201 16.9942L57.6896 17.488ZM59.7216 15.456L60.2119 16.3276L60.2201 16.3229L59.7216 15.456ZM65.4016 15.456L64.9031 16.3229L64.9114 16.3276L65.4016 15.456ZM67.4176 17.472L68.2872 16.9782L68.2872 16.9782L67.4176 17.472ZM65.4016 25.392L65.8919 26.2636L65.9001 26.2589L65.4016 25.392ZM64.6496 24.304L64.1503 23.4375L64.1439 23.4413L64.6496 24.304ZM66.1216 22.752L65.2415 22.277L65.2358 22.288L66.1216 22.752ZM66.1216 18.08L65.2358 18.544L65.2402 18.5525L65.2448 18.5608L66.1216 18.08ZM64.6656 16.528L64.1599 17.3907L64.1599 17.3907L64.6656 16.528ZM60.4416 16.528L60.9473 17.3907L60.9473 17.3907L60.4416 16.528ZM58.9696 18.08L58.0896 17.6051L58.0869 17.6102L58.9696 18.08ZM58.9696 22.752L58.0837 23.216L58.0896 23.2269L58.9696 22.752ZM60.4416 24.304L59.9359 25.1667L59.9423 25.1704L60.4416 24.304ZM62.5536 25.112C61.6806 25.112 60.907 24.9114 60.2119 24.5204L59.2314 26.2636C60.2429 26.8326 61.3573 27.112 62.5536 27.112V25.112ZM60.2201 24.5251C59.5212 24.1232 58.9692 23.5728 58.5546 22.8581L56.8247 23.8619C57.4127 24.8752 58.2154 25.6795 59.2232 26.2589L60.2201 24.5251ZM58.5618 22.8707C58.162 22.158 57.9536 21.3476 57.9536 20.416H55.9536C55.9536 21.6604 56.236 22.8126 56.8175 23.8493L58.5618 22.8707ZM57.9536 20.416C57.9536 19.4842 58.162 18.6812 58.5592 17.9818L56.8201 16.9942C56.2359 18.0228 55.9536 19.1718 55.9536 20.416H57.9536ZM58.5572 17.9853C58.9716 17.2623 59.5206 16.7164 60.2119 16.3276L59.2314 14.5844C58.216 15.1556 57.4103 15.9644 56.822 16.9907L58.5572 17.9853ZM60.2201 16.3229C60.9139 15.924 61.6846 15.72 62.5536 15.72V13.72C61.3533 13.72 60.236 14.0067 59.2232 14.5891L60.2201 16.3229ZM62.5536 15.72C63.4353 15.72 64.2109 15.9249 64.9032 16.3229L65.9001 14.5891C64.8857 14.0058 63.7627 13.72 62.5536 13.72V15.72ZM64.9114 16.3276C65.6038 16.7171 66.1457 17.2574 66.5481 17.9658L68.2872 16.9782C67.7082 15.9586 66.9061 15.1549 65.8919 14.5844L64.9114 16.3276ZM66.5481 17.9658C66.9444 18.6638 67.1536 19.4717 67.1536 20.416H69.1536C69.1536 19.163 68.8722 18.0082 68.2872 16.9782L66.5481 17.9658ZM67.1536 20.416C67.1536 21.3603 66.9444 22.1682 66.5481 22.8662L68.2872 23.8538C68.8722 22.8238 69.1536 21.669 69.1536 20.416H67.1536ZM66.5481 22.8662C66.1447 23.5765 65.6002 24.1243 64.9032 24.5251L65.9001 26.2589C66.9097 25.6784 67.7092 24.8715 68.2872 23.8538L66.5481 22.8662ZM64.9114 24.5204C64.2178 24.9105 63.4392 25.112 62.5536 25.112V27.112C63.7587 27.112 64.8787 26.8335 65.8919 26.2636L64.9114 24.5204ZM62.5536 25.848C63.4943 25.848 64.3703 25.6269 65.1553 25.1667L64.1439 23.4413C63.6916 23.7064 63.1703 23.848 62.5536 23.848V25.848ZM65.1489 25.1704C65.9502 24.7087 66.5715 24.0483 67.0075 23.216L65.2358 22.288C64.9677 22.7997 64.6077 23.174 64.1503 23.4376L65.1489 25.1704ZM67.0016 23.2269C67.4548 22.3873 67.6656 21.4406 67.6656 20.416H65.6656C65.6656 21.1621 65.5138 21.7727 65.2416 22.2771L67.0016 23.2269ZM67.6656 20.416C67.6656 19.3835 67.4559 18.4333 66.9984 17.5992L65.2448 18.5608C65.5127 19.0494 65.6656 19.6565 65.6656 20.416H67.6656ZM67.0075 17.616C66.5738 16.7882 65.961 16.1282 65.1713 15.6653L64.1599 17.3907C64.6075 17.6531 64.9654 18.0278 65.2358 18.544L67.0075 17.616ZM65.1713 15.6653C64.3842 15.2039 63.5023 14.984 62.5536 14.984V16.984C63.1836 16.984 63.7097 17.1268 64.1599 17.3907L65.1713 15.6653ZM62.5536 14.984C61.6049 14.984 60.7231 15.2039 59.9359 15.6653L60.9473 17.3907C61.3975 17.1268 61.9237 16.984 62.5536 16.984V14.984ZM59.9359 15.6653C59.149 16.1266 58.5333 16.7829 58.0896 17.6051L59.8496 18.5549C60.1313 18.0331 60.4969 17.6547 60.9473 17.3907L59.9359 15.6653ZM58.0869 17.6102C57.6442 18.4419 57.4416 19.3881 57.4416 20.416H59.4416C59.4416 19.6519 59.5911 19.0407 59.8524 18.5498L58.0869 17.6102ZM57.4416 20.416C57.4416 21.4359 57.6452 22.3787 58.0838 23.216L59.8555 22.288C59.5901 21.7813 59.4416 21.1668 59.4416 20.416H57.4416ZM58.0896 23.2269C58.5333 24.0491 59.149 24.7054 59.9359 25.1667L60.9473 23.4413C60.4969 23.1773 60.1313 22.7989 59.8496 22.2771L58.0896 23.2269ZM59.9423 25.1704C60.7344 25.6269 61.6128 25.848 62.5536 25.848V23.848C61.9372 23.848 61.4075 23.7064 60.9409 23.4376L59.9423 25.1704ZM77.8837 14.848L78.7699 15.3115L79.5353 13.848H77.8837V14.848ZM74.2518 21.792L73.3656 21.3285L73.2518 21.5463V21.792H74.2518ZM74.2518 26V27H75.2518V26H74.2518ZM72.7958 26H71.7958V27H72.7958V26ZM72.7958 21.792H73.7958V21.5453L73.681 21.3269L72.7958 21.792ZM69.1478 14.848V13.848H67.4928L68.2625 15.3131L69.1478 14.848ZM70.7638 14.848L71.6627 14.41L71.3889 13.848H70.7638V14.848ZM73.5158 20.496L72.6168 20.934L73.5158 22.779L74.4147 20.934L73.5158 20.496ZM76.2678 14.848V13.848H75.6426L75.3688 14.41L76.2678 14.848ZM76.9976 14.3845L73.3656 21.3285L75.1379 22.2555L78.7699 15.3115L76.9976 14.3845ZM73.2518 21.792V26H75.2518V21.792H73.2518ZM74.2518 25H72.7958V27H74.2518V25ZM73.7958 26V21.792H71.7958V26H73.7958ZM73.681 21.3269L70.033 14.3829L68.2625 15.3131L71.9105 22.2571L73.681 21.3269ZM69.1478 15.848H70.7638V13.848H69.1478V15.848ZM69.8648 15.286L72.6168 20.934L74.4147 20.058L71.6627 14.41L69.8648 15.286ZM74.4147 20.934L77.1667 15.286L75.3688 14.41L72.6168 20.058L74.4147 20.934ZM76.2678 15.848H77.8837V13.848H76.2678V15.848ZM81.6435 25.392L81.145 26.2589L81.1532 26.2636L81.6435 25.392ZM79.6115 23.36L78.7394 23.8493L78.7429 23.8556L78.7466 23.8619L79.6115 23.36ZM79.6115 17.488L78.7439 16.9907L78.7419 16.9942L79.6115 17.488ZM81.6435 15.456L82.1338 16.3276L82.142 16.3229L81.6435 15.456ZM87.3235 15.456L86.825 16.3229L86.8332 16.3276L87.3235 15.456ZM89.3395 17.472L90.2091 16.9782L90.2091 16.9782L89.3395 17.472ZM87.3235 25.392L87.8138 26.2636L87.822 26.2589L87.3235 25.392ZM86.5715 24.304L86.0722 23.4375L86.0658 23.4413L86.5715 24.304ZM88.0435 22.752L87.1634 22.277L87.1577 22.288L88.0435 22.752ZM88.0435 18.08L87.1577 18.544L87.1621 18.5525L87.1667 18.5608L88.0435 18.08ZM86.5875 16.528L86.0818 17.3907L86.0818 17.3907L86.5875 16.528ZM82.3635 16.528L82.8692 17.3907L82.8692 17.3907L82.3635 16.528ZM80.8915 18.08L80.0115 17.6051L80.0088 17.6102L80.8915 18.08ZM80.8915 22.752L80.0056 23.216L80.0115 23.2269L80.8915 22.752ZM82.3635 24.304L81.8578 25.1667L81.8642 25.1704L82.3635 24.304ZM84.4755 25.112C83.6025 25.112 82.8288 24.9114 82.1338 24.5204L81.1532 26.2636C82.1648 26.8326 83.2792 27.112 84.4755 27.112V25.112ZM82.142 24.5251C81.443 24.1232 80.8911 23.5728 80.4764 22.8581L78.7466 23.8619C79.3346 24.8752 80.1373 25.6795 81.145 26.2589L82.142 24.5251ZM80.4836 22.8707C80.0838 22.158 79.8755 21.3476 79.8755 20.416H77.8755C77.8755 21.6604 78.1578 22.8126 78.7394 23.8493L80.4836 22.8707ZM79.8755 20.416C79.8755 19.4842 80.0839 18.6812 80.4811 17.9818L78.7419 16.9942C78.1578 18.0228 77.8755 19.1718 77.8755 20.416H79.8755ZM80.4791 17.9853C80.8935 17.2623 81.4425 16.7164 82.1338 16.3276L81.1532 14.5844C80.1378 15.1556 79.3322 15.9644 78.7439 16.9907L80.4791 17.9853ZM82.142 16.3229C82.8358 15.924 83.6065 15.72 84.4755 15.72V13.72C83.2752 13.72 82.1579 14.0067 81.145 14.5891L82.142 16.3229ZM84.4755 15.72C85.3571 15.72 86.1328 15.9249 86.825 16.3229L87.822 14.5891C86.8075 14.0058 85.6845 13.72 84.4755 13.72V15.72ZM86.8332 16.3276C87.5257 16.7171 88.0676 17.2574 88.4699 17.9658L90.2091 16.9782C89.63 15.9586 88.828 15.1549 87.8138 14.5844L86.8332 16.3276ZM88.4699 17.9658C88.8663 18.6638 89.0755 19.4717 89.0755 20.416H91.0755C91.0755 19.163 90.794 18.0082 90.2091 16.9782L88.4699 17.9658ZM89.0755 20.416C89.0755 21.3603 88.8663 22.1682 88.4699 22.8662L90.2091 23.8538C90.794 22.8238 91.0755 21.669 91.0755 20.416H89.0755ZM88.4699 22.8662C88.0666 23.5765 87.5221 24.1243 86.825 24.5251L87.822 26.2589C88.8316 25.6784 89.6311 24.8715 90.2091 23.8538L88.4699 22.8662ZM86.8332 24.5204C86.1397 24.9105 85.3611 25.112 84.4755 25.112V27.112C85.6806 27.112 86.8006 26.8335 87.8138 26.2636L86.8332 24.5204ZM84.4755 25.848C85.4162 25.848 86.2921 25.6269 87.0772 25.1667L86.0658 23.4413C85.6135 23.7064 85.0921 23.848 84.4755 23.848V25.848ZM87.0708 25.1704C87.8721 24.7087 88.4934 24.0483 88.9293 23.216L87.1577 22.288C86.8896 22.7997 86.5296 23.174 86.0722 23.4376L87.0708 25.1704ZM88.9235 23.2269C89.3767 22.3873 89.5875 21.4406 89.5875 20.416H87.5875C87.5875 21.1621 87.4357 21.7727 87.1635 22.2771L88.9235 23.2269ZM89.5875 20.416C89.5875 19.3835 89.3777 18.4333 88.9203 17.5992L87.1667 18.5608C87.4346 19.0494 87.5875 19.6565 87.5875 20.416H89.5875ZM88.9293 17.616C88.4957 16.7882 87.8829 16.1282 87.0932 15.6653L86.0818 17.3907C86.5294 17.6531 86.8873 18.0278 87.1577 18.544L88.9293 17.616ZM87.0932 15.6653C86.306 15.2039 85.4242 14.984 84.4755 14.984V16.984C85.1055 16.984 85.6316 17.1268 86.0818 17.3907L87.0932 15.6653ZM84.4755 14.984C83.5268 14.984 82.645 15.2039 81.8578 15.6653L82.8692 17.3907C83.3194 17.1268 83.8455 16.984 84.4755 16.984V14.984ZM81.8578 15.6653C81.0709 16.1266 80.4552 16.7829 80.0115 17.6051L81.7715 18.5549C82.0531 18.0331 82.4188 17.6547 82.8692 17.3907L81.8578 15.6653ZM80.0088 17.6102C79.566 18.4419 79.3635 19.3881 79.3635 20.416H81.3635C81.3635 19.6519 81.513 19.0407 81.7742 18.5498L80.0088 17.6102ZM79.3635 20.416C79.3635 21.4359 79.5671 22.3787 80.0057 23.216L81.7773 22.288C81.5119 21.7813 81.3635 21.1668 81.3635 20.416H79.3635ZM80.0115 23.2269C80.4552 24.0491 81.0709 24.7054 81.8578 25.1667L82.8692 23.4413C82.4188 23.1773 82.0531 22.7989 81.7715 22.2771L80.0115 23.2269ZM81.8642 25.1704C82.6563 25.6269 83.5346 25.848 84.4755 25.848V23.848C83.859 23.848 83.3294 23.7064 82.8628 23.4376L81.8642 25.1704ZM104.711 18.08L103.808 18.5094L104.079 19.08H104.711V18.08ZM103.367 16.576L102.841 17.4267L102.853 17.4335L103.367 16.576ZM99.2073 16.576L99.7018 17.4452L99.7065 17.4424L99.2073 16.576ZM97.7353 18.112L96.8552 17.6371L96.8525 17.6422L97.7353 18.112ZM97.7353 22.72L96.8524 23.1899L96.8584 23.2008L97.7353 22.72ZM99.2073 24.256L98.7015 25.1187L98.7103 25.1238L98.7191 25.1288L99.2073 24.256ZM104.007 23.808L104.686 24.5424L104.686 24.5424L104.007 23.808ZM105.239 21.168L106.234 21.2732L106.351 20.168H105.239V21.168ZM100.791 21.168H99.7913V22.168H100.791V21.168ZM100.791 19.984V18.984H99.7913V19.984H100.791ZM106.791 19.984H107.791V18.984H106.791V19.984ZM106.791 21.104L107.787 21.1966L107.791 21.1504V21.104H106.791ZM105.927 23.632L106.767 24.1758L106.77 24.1704L105.927 23.632ZM103.991 25.44L104.471 26.3175L104.48 26.3125L103.991 25.44ZM98.4873 25.376L97.9888 26.2429L97.997 26.2476L98.4873 25.376ZM96.4553 23.344L95.5857 23.8378L95.5903 23.8459L96.4553 23.344ZM96.4553 17.488L95.5877 16.9907L95.5857 16.9942L96.4553 17.488ZM98.4873 15.456L98.9775 16.3276L98.9857 16.3229L98.4873 15.456ZM104.455 15.6L103.912 16.4396L103.916 16.4424L104.455 15.6ZM106.455 18.08V19.08H107.919L107.387 17.7167L106.455 18.08ZM105.614 17.6506C105.225 16.832 104.646 16.1774 103.882 15.7185L102.853 17.4335C103.261 17.6786 103.579 18.0266 103.808 18.5094L105.614 17.6506ZM103.893 15.7254C103.129 15.2529 102.259 15.032 101.319 15.032V17.032C101.937 17.032 102.432 17.1738 102.841 17.4266L103.893 15.7254ZM101.319 15.032C100.378 15.032 99.5001 15.2531 98.708 15.7096L99.7065 17.4424C100.173 17.1736 100.703 17.032 101.319 17.032V15.032ZM98.7127 15.7068C97.9192 16.1583 97.3002 16.8126 96.8552 17.6371L98.6153 18.5869C98.8957 18.0674 99.2579 17.6977 99.7018 17.4452L98.7127 15.7068ZM96.8525 17.6422C96.4115 18.4706 96.2073 19.405 96.2073 20.416H98.2073C98.2073 19.6777 98.355 19.0761 98.618 18.5818L96.8525 17.6422ZM96.2073 20.416C96.2073 21.427 96.4115 22.3614 96.8525 23.1898L98.618 22.2502C98.355 21.7559 98.2073 21.1543 98.2073 20.416H96.2073ZM96.8584 23.2008C97.3033 24.0121 97.9187 24.6598 98.7015 25.1187L99.713 23.3933C99.2584 23.1269 98.8925 22.7506 98.6121 22.2392L96.8584 23.2008ZM98.7191 25.1288C99.5094 25.5708 100.384 25.784 101.319 25.784V23.784C100.697 23.784 100.164 23.6452 99.6954 23.3832L98.7191 25.1288ZM101.319 25.784C102.622 25.784 103.772 25.3871 104.686 24.5424L103.329 23.0736C102.834 23.5302 102.192 23.784 101.319 23.784V25.784ZM104.686 24.5424C105.597 23.7007 106.095 22.5818 106.234 21.2732L104.245 21.0628C104.149 21.9729 103.826 22.6139 103.329 23.0736L104.686 24.5424ZM105.239 20.168H100.791V22.168H105.239V20.168ZM101.791 21.168V19.984H99.7913V21.168H101.791ZM100.791 20.984H106.791V18.984H100.791V20.984ZM105.791 19.984V21.104H107.791V19.984H105.791ZM105.796 21.0114C105.725 21.7719 105.488 22.4614 105.085 23.0936L106.77 24.1704C107.347 23.2666 107.687 22.2708 107.787 21.1966L105.796 21.0114ZM105.088 23.0883C104.687 23.7069 104.163 24.1976 103.503 24.5675L104.48 26.3125C105.419 25.7864 106.186 25.0718 106.767 24.1757L105.088 23.0883ZM103.512 24.5626C102.87 24.9134 102.146 25.096 101.319 25.096V27.096C102.455 27.096 103.513 26.8413 104.471 26.3174L103.512 24.5626ZM101.319 25.096C100.446 25.096 99.6726 24.8954 98.9775 24.5044L97.997 26.2476C99.0086 26.8166 100.123 27.096 101.319 27.096V25.096ZM98.9857 24.5091C98.2868 24.1072 97.7349 23.5568 97.3202 22.8421L95.5903 23.8459C96.1783 24.8592 96.981 25.6635 97.9888 26.2429L98.9857 24.5091ZM97.3248 22.8502C96.9276 22.1508 96.7193 21.3478 96.7193 20.416H94.7193C94.7193 21.6602 95.0016 22.8092 95.5857 23.8378L97.3248 22.8502ZM96.7193 20.416C96.7193 19.4842 96.9276 18.6812 97.3248 17.9818L95.5857 16.9942C95.0016 18.0228 94.7193 19.1718 94.7193 20.416H96.7193ZM97.3228 17.9853C97.7373 17.2623 98.2862 16.7164 98.9775 16.3276L97.997 14.5844C96.9816 15.1556 96.1759 15.9644 95.5877 16.9907L97.3228 17.9853ZM98.9857 16.3229C99.6795 15.924 100.45 15.72 101.319 15.72V13.72C100.119 13.72 99.0016 14.0067 97.9888 14.5891L98.9857 16.3229ZM101.319 15.72C102.33 15.72 103.183 15.9676 103.912 16.4396L104.999 14.7604C103.915 14.059 102.677 13.72 101.319 13.72V15.72ZM103.916 16.4424C104.646 16.9089 105.18 17.5631 105.524 18.4433L107.387 17.7167C106.898 16.4635 106.099 15.4644 104.994 14.7576L103.916 16.4424ZM106.455 17.08H104.711V19.08H106.455V17.08ZM115.308 23.52L116.249 23.1802L116.01 22.52H115.308V23.52ZM110.444 23.52V22.52H109.742L109.504 23.1802L110.444 23.52ZM109.548 26V27H110.25L110.489 26.3398L109.548 26ZM108.012 26L107.073 25.6583L106.585 27H108.012V26ZM112.044 14.912V13.912H111.344L111.105 14.5703L112.044 14.912ZM113.724 14.912L114.665 14.5715L114.426 13.912H113.724V14.912ZM117.74 26V27H119.166L118.681 25.6595L117.74 26ZM116.204 26L115.264 26.3398L115.502 27H116.204V26ZM114.892 22.336V23.336H116.312L115.834 21.999L114.892 22.336ZM112.876 16.704L113.818 16.367L112.876 13.7368L111.935 16.367L112.876 16.704ZM110.86 22.336L109.919 21.999L109.44 23.336H110.86V22.336ZM115.308 22.52H110.444V24.52H115.308V22.52ZM109.504 23.1802L108.608 25.6602L110.489 26.3398L111.385 23.8598L109.504 23.1802ZM109.548 25H108.012V27H109.548V25ZM108.952 26.3417L112.984 15.2537L111.105 14.5703L107.073 25.6583L108.952 26.3417ZM112.044 15.912H113.724V13.912H112.044V15.912ZM112.784 15.2525L116.8 26.3405L118.681 25.6595L114.665 14.5715L112.784 15.2525ZM117.74 25H116.204V27H117.74V25ZM117.145 25.6602L116.249 23.1802L114.368 23.8598L115.264 26.3398L117.145 25.6602ZM115.834 21.999L113.818 16.367L111.935 17.041L113.951 22.673L115.834 21.999ZM111.935 16.367L109.919 21.999L111.802 22.673L113.818 17.041L111.935 16.367ZM110.86 23.336H114.892V21.336H110.86V23.336ZM130.81 14.928H131.81V13.928H130.81V14.928ZM130.81 26V27H131.81V26H130.81ZM129.354 26H128.354V27H129.354V26ZM129.354 17.744H130.354L128.44 17.3369L129.354 17.744ZM125.674 26V27H126.323L126.587 26.4071L125.674 26ZM124.65 26L123.737 26.4079L124.001 27H124.65V26ZM120.954 17.728L121.867 17.3201L119.954 17.728H120.954ZM120.954 26V27H121.954V26H120.954ZM119.498 26H118.498V27H119.498V26ZM119.498 14.928V13.928H118.498V14.928H119.498ZM121.066 14.928L121.978 14.5195L121.714 13.928H121.066V14.928ZM125.162 24.08L124.249 24.4885L125.162 26.5279L126.074 24.4885L125.162 24.08ZM129.258 14.928V13.928H128.61L128.345 14.5195L129.258 14.928ZM129.81 14.928V26H131.81V14.928H129.81ZM130.81 25H129.354V27H130.81V25ZM130.354 26V17.744H128.354V26H130.354ZM128.44 17.3369L124.76 25.5929L126.587 26.4071L130.267 18.1511L128.44 17.3369ZM125.674 25H124.65V27H125.674V25ZM125.563 25.5921L121.867 17.3201L120.041 18.1359L123.737 26.4079L125.563 25.5921ZM119.954 17.728V26H121.954V17.728H119.954ZM120.954 25H119.498V27H120.954V25ZM120.498 26V14.928H118.498V26H120.498ZM119.498 15.928H121.066V13.928H119.498V15.928ZM120.153 15.3365L124.249 24.4885L126.074 23.6715L121.978 14.5195L120.153 15.3365ZM126.074 24.4885L130.17 15.3365L128.345 14.5195L124.249 23.6715L126.074 24.4885ZM129.258 15.928H130.81V13.928H129.258V15.928ZM134.735 16.032V15.032H133.735V16.032H134.735ZM134.735 19.76H133.735V20.76H134.735V19.76ZM138.799 19.76H139.799V18.76H138.799V19.76ZM138.799 20.96V21.96H139.799V20.96H138.799ZM134.735 20.96V19.96H133.735V20.96H134.735ZM134.735 24.8H133.735V25.8H134.735V24.8ZM139.279 24.8H140.279V23.8H139.279V24.8ZM139.279 26V27H140.279V26H139.279ZM133.279 26H132.279V27H133.279V26ZM133.279 14.832V13.832H132.279V14.832H133.279ZM139.279 14.832H140.279V13.832H139.279V14.832ZM139.279 16.032V17.032H140.279V16.032H139.279ZM133.735 16.032V19.76H135.735V16.032H133.735ZM134.735 20.76H138.799V18.76H134.735V20.76ZM137.799 19.76V20.96H139.799V19.76H137.799ZM138.799 19.96H134.735V21.96H138.799V19.96ZM133.735 20.96V24.8H135.735V20.96H133.735ZM134.735 25.8H139.279V23.8H134.735V25.8ZM138.279 24.8V26H140.279V24.8H138.279ZM139.279 25H133.279V27H139.279V25ZM134.279 26V14.832H132.279V26H134.279ZM133.279 15.832H139.279V13.832H133.279V15.832ZM138.279 14.832V16.032H140.279V14.832H138.279ZM139.279 15.032H134.735V17.032H139.279V15.032ZM143.034 25.728L142.614 26.6355L142.624 26.6401L142.634 26.6445L143.034 25.728ZM141.674 24.64L140.856 25.216L140.863 25.2248L141.674 24.64ZM141.162 23.024V22.024H140.144L140.162 23.0415L141.162 23.024ZM142.714 23.024L143.709 22.9225L143.617 22.024H142.714V23.024ZM143.354 24.352L142.657 25.0693L142.668 25.0794L142.678 25.0892L143.354 24.352ZM146.65 24.368L147.304 25.1244L147.306 25.123L146.65 24.368ZM146.906 21.984L146.155 22.6446L146.155 22.6446L146.906 21.984ZM146.026 21.376L145.659 22.3064L145.659 22.3064L146.026 21.376ZM144.602 20.928L144.861 19.962L144.854 19.9604L144.602 20.928ZM142.826 20.352L142.424 21.2677L142.432 21.2711L142.826 20.352ZM141.69 19.456L140.888 20.0527L140.896 20.0643L140.905 20.0756L141.69 19.456ZM141.69 16.176L142.525 16.7263L142.525 16.7263L141.69 16.176ZM142.986 15.088L142.573 14.177L142.567 14.18L142.986 15.088ZM147.482 15.488L146.862 16.2726L146.868 16.2774L147.482 15.488ZM148.618 17.568V18.568H149.722L149.613 17.4697L148.618 17.568ZM147.018 17.568L146.026 17.692L146.135 18.568H147.018V17.568ZM146.346 16.448L145.704 17.2145L145.71 17.2197L145.716 17.2248L146.346 16.448ZM143.29 16.432L143.917 17.2108L143.924 17.2055L143.93 17.2002L143.29 16.432ZM143.05 18.736L142.297 19.3945L142.305 19.4032L142.313 19.4117L143.05 18.736ZM143.898 19.328L143.511 20.2502L143.529 20.2576L143.547 20.2643L143.898 19.328ZM145.322 19.776L145.052 20.7388L145.057 20.7401L145.322 19.776ZM147.098 20.384L146.686 21.2951L146.695 21.2992L146.704 21.3031L147.098 20.384ZM148.25 21.296L147.457 21.9058L147.465 21.9156L148.25 21.296ZM148.298 24.496L149.155 25.0105L149.155 25.0105L148.298 24.496ZM147.018 25.664L146.551 24.7798L147.018 25.664ZM145.018 25.112C144.399 25.112 143.877 25.0048 143.434 24.8115L142.634 26.6445C143.364 26.9632 144.165 27.112 145.018 27.112V25.112ZM143.454 24.8205C143.015 24.617 142.704 24.3581 142.485 24.0552L140.863 25.2248C141.306 25.8393 141.901 26.3056 142.614 26.6355L143.454 24.8205ZM142.491 24.064C142.283 23.7683 142.169 23.4268 142.162 23.0065L140.162 23.0415C140.176 23.8372 140.404 24.573 140.857 25.216L142.491 24.064ZM141.162 24.024H142.714V22.024H141.162V24.024ZM141.719 23.1255C141.796 23.8797 142.113 24.5411 142.657 25.0693L144.051 23.6347C143.848 23.4376 143.739 23.2137 143.709 22.9225L141.719 23.1255ZM142.678 25.0892C143.308 25.6667 144.141 25.88 145.018 25.88V23.88C144.444 23.88 144.168 23.7413 144.03 23.6148L142.678 25.0892ZM145.018 25.88C145.872 25.88 146.675 25.6683 147.304 25.1244L145.996 23.6116C145.835 23.7504 145.551 23.88 145.018 23.88V25.88ZM147.306 25.123C147.933 24.5782 148.258 23.8532 148.258 23.024H146.258C146.258 23.2828 146.178 23.4538 145.994 23.613L147.306 25.123ZM148.258 23.024C148.258 22.4055 148.083 21.8078 147.657 21.3234L146.155 22.6446C146.198 22.6935 146.258 22.7892 146.258 23.024H148.258ZM147.657 21.3234C147.31 20.9299 146.882 20.6385 146.393 20.4456L145.659 22.3064C145.874 22.3908 146.032 22.5048 146.155 22.6446L147.657 21.3234ZM146.393 20.4456C145.99 20.2872 145.475 20.1265 144.861 19.9621L144.343 21.8939C144.924 22.0495 145.358 22.1875 145.659 22.3064L146.393 20.4456ZM144.854 19.9604C144.143 19.7748 143.604 19.5975 143.22 19.4329L142.432 21.2711C142.944 21.4905 143.589 21.6972 144.35 21.8956L144.854 19.9604ZM143.228 19.4364C142.953 19.3155 142.702 19.1239 142.475 18.8364L140.905 20.0756C141.318 20.5988 141.825 21.0045 142.424 21.2676L143.228 19.4364ZM142.492 18.8593C142.349 18.6657 142.226 18.3423 142.226 17.792H140.226C140.226 18.6284 140.413 19.4143 140.888 20.0527L142.492 18.8593ZM142.226 17.792C142.226 17.3629 142.332 17.0189 142.525 16.7263L140.855 15.6257C140.429 16.2718 140.226 17.0051 140.226 17.792H142.226ZM142.525 16.7263C142.723 16.4261 143.004 16.1809 143.405 15.996L142.567 14.18C141.858 14.5071 141.276 14.9873 140.855 15.6257L142.525 16.7263ZM143.399 15.999C143.814 15.8107 144.315 15.704 144.922 15.704V13.704C144.078 13.704 143.288 13.8533 142.573 14.177L143.399 15.999ZM144.922 15.704C145.798 15.704 146.416 15.9203 146.862 16.2726L148.102 14.7034C147.225 14.0104 146.137 13.704 144.922 13.704V15.704ZM146.868 16.2774C147.319 16.6279 147.564 17.069 147.623 17.6663L149.613 17.4697C149.501 16.3389 148.989 15.3934 148.096 14.6986L146.868 16.2774ZM148.618 16.568H147.018V18.568H148.618V16.568ZM148.01 17.444C147.919 16.7153 147.532 16.1223 146.976 15.6712L145.716 17.2248C145.949 17.4137 146.01 17.5673 146.026 17.692L148.01 17.444ZM146.988 15.6815C146.37 15.1637 145.6 14.952 144.778 14.952V16.952C145.257 16.952 145.532 17.071 145.704 17.2145L146.988 15.6815ZM144.778 14.952C143.989 14.952 143.25 15.1635 142.65 15.6638L143.93 17.2002C144.098 17.0605 144.351 16.952 144.778 16.952V14.952ZM142.663 15.6532C142.007 16.1816 141.714 16.926 141.714 17.744H143.714C143.714 17.4314 143.805 17.301 143.917 17.2108L142.663 15.6532ZM141.714 17.744C141.714 18.3428 141.884 18.9226 142.297 19.3945L143.803 18.0775C143.768 18.0374 143.714 17.9559 143.714 17.744H141.714ZM142.313 19.4117C142.648 19.7777 143.052 20.0575 143.511 20.2502L144.285 18.4058C144.083 18.3211 143.921 18.2063 143.787 18.0603L142.313 19.4117ZM143.547 20.2643C143.927 20.4069 144.433 20.5651 145.052 20.7388L145.592 18.8132C144.995 18.6455 144.552 18.5051 144.249 18.3917L143.547 20.2643ZM145.057 20.7401C145.767 20.9356 146.304 21.1222 146.686 21.2951L147.51 19.4729C146.996 19.2404 146.349 19.0217 145.587 18.8119L145.057 20.7401ZM146.704 21.3031C146.983 21.4226 147.233 21.6145 147.457 21.9057L149.043 20.6863C148.627 20.1455 148.109 19.7294 147.492 19.4649L146.704 21.3031ZM147.465 21.9156C147.603 22.09 147.73 22.3999 147.73 22.96H149.73C149.73 22.1121 149.537 21.3127 149.035 20.6764L147.465 21.9156ZM147.73 22.96C147.73 23.3173 147.638 23.6522 147.441 23.9815L149.155 25.0105C149.534 24.3798 149.73 23.6907 149.73 22.96H147.73ZM147.441 23.9815C147.259 24.2837 146.978 24.554 146.551 24.7798L147.485 26.5482C148.188 26.1766 148.761 25.6683 149.155 25.0105L147.441 23.9815ZM146.551 24.7798C146.156 24.9885 145.656 25.112 145.018 25.112V27.112C145.916 27.112 146.75 26.9368 147.485 26.5482L146.551 24.7798Z" fill="#B49012" mask="url(#path-3-outside-1_2001_37)"/>
</svg>
