<svg width="25" height="25" viewBox="0 0 32 32" fill="none" xmlns="http://www.w3.org/2000/svg">
<path d="M5.88128 1.57622C3.16273 3.14564 1.21793 5.68016 0.405529 8.71228C-0.407042 11.7444 0.0101254 14.9116 1.57955 17.6302C3.67287 21.2557 7.57607 23.508 11.7664 23.508C13.0894 23.508 14.4022 23.2802 15.6468 22.8432L20.9334 32L24.7029 29.8236L19.4171 20.6684C21.2026 19.1408 22.4881 17.1147 23.1095 14.7957C23.9219 11.7636 23.5047 8.5965 21.9353 5.87777C19.8421 2.25229 15.9387 0 11.7486 0C9.69621 0 7.6673 0.544964 5.88128 1.57622ZM18.1658 8.05415C19.154 9.76582 19.4166 11.7601 18.9051 13.6692C18.3935 15.5783 17.169 17.174 15.4573 18.1623C14.3322 18.8119 13.0558 19.1552 11.7664 19.1552C9.12634 19.1552 6.66739 17.7369 5.34921 15.4538C4.36096 13.7421 4.0984 11.7481 4.61011 9.83877C5.12164 7.92966 6.34616 6.33394 8.05783 5.34552C9.18276 4.69609 10.4592 4.35275 11.7486 4.35275C14.3888 4.35275 16.8476 5.77105 18.1658 8.05415Z" fill="#FFCB14"/>
</svg>
